<?xml version="1.0" encoding="UTF-8" standalone="no"?>
<!-- Created with Inkscape (http://www.inkscape.org/) -->

<svg
   xmlns:dc="http://purl.org/dc/elements/1.1/"
   xmlns:cc="http://creativecommons.org/ns#"
   xmlns:rdf="http://www.w3.org/1999/02/22-rdf-syntax-ns#"
   xmlns:svg="http://www.w3.org/2000/svg"
   xmlns="http://www.w3.org/2000/svg"
   xmlns:sodipodi="http://sodipodi.sourceforge.net/DTD/sodipodi-0.dtd"
   xmlns:inkscape="http://www.inkscape.org/namespaces/inkscape"
   width="93.023369mm"
   height="92.653297mm"
   viewBox="0 0 93.023369 92.653297"
   version="1.1"
   id="svg263"
   inkscape:version="0.92.5 (2060ec1f9f, 2020-04-08)"
   sodipodi:docname="logocircle.svg">
  <defs
     id="defs257" />
  <sodipodi:namedview
     id="base"
     pagecolor="#ffffff"
     bordercolor="#666666"
     borderopacity="1.0"
     inkscape:pageopacity="0.0"
     inkscape:pageshadow="2"
     inkscape:zoom="0.35"
     inkscape:cx="-424.20783"
     inkscape:cy="612.23571"
     inkscape:document-units="mm"
     inkscape:current-layer="layer1"
     showgrid="false"
     fit-margin-top="0"
     fit-margin-left="0"
     fit-margin-right="0"
     fit-margin-bottom="0"
     inkscape:window-width="1366"
     inkscape:window-height="702"
     inkscape:window-x="0"
     inkscape:window-y="0"
     inkscape:window-maximized="1" />
  <metadata
     id="metadata260">
    <rdf:RDF>
      <cc:Work
         rdf:about="">
        <dc:format>image/svg+xml</dc:format>
        <dc:type
           rdf:resource="http://purl.org/dc/dcmitype/StillImage" />
        <dc:title></dc:title>
      </cc:Work>
    </rdf:RDF>
  </metadata>
  <g
     inkscape:label="Capa 1"
     inkscape:groupmode="layer"
     id="layer1"
     transform="translate(-28.327607,-218.1674)">
    <g
       transform="matrix(1.3838989,0,0,1.3838989,-364.03589,-107.85614)"
       id="g255">
      <circle
         r="14.699823"
         cy="287.83444"
         cx="299.55655"
         id="path231"
         style="fill:#8dc73f;fill-opacity:1;stroke-width:0.27984774" />
      <path
         inkscape:connector-curvature="0"
         id="circle233"
         transform="matrix(0.26458333,0,0,0.26458333,-107.09405,230.41726)"
         d="m 1537.4531,19.525391 a 61.114226,61.114226 0 0 0 -61.1152,61.113281 61.114226,61.114226 0 0 0 61.1152,61.115238 61.114226,61.114226 0 0 0 61.1133,-61.115238 61.114226,61.114226 0 0 0 -61.1133,-61.113281 z m -0.5058,31.820312 a 30.304571,30.304571 0 0 1 30.3047,30.302735 30.304571,30.304571 0 0 1 -30.3047,30.304682 30.304571,30.304571 0 0 1 -30.3047,-30.304682 30.304571,30.304571 0 0 1 30.3047,-30.302735 z"
         style="fill:#ff595d;fill-opacity:1;stroke-width:1.16346145" />
      <circle
         style="fill:#00b9b4;fill-opacity:1;stroke-width:0.27984774"
         id="circle235"
         cx="336.03885"
         cy="287.83444"
         r="14.699823" />
      <circle
         r="14.699823"
         cy="251.88669"
         cx="336.03885"
         id="circle237"
         style="fill:#bd1c7c;fill-opacity:1;stroke-width:0.27984774" />
    </g>
  </g>
</svg>
