<?xml version="1.0" encoding="UTF-8" standalone="no"?>
<!-- Created with Inkscape (http://www.inkscape.org/) -->

<svg
   xmlns:dc="http://purl.org/dc/elements/1.1/"
   xmlns:cc="http://creativecommons.org/ns#"
   xmlns:rdf="http://www.w3.org/1999/02/22-rdf-syntax-ns#"
   xmlns:svg="http://www.w3.org/2000/svg"
   xmlns="http://www.w3.org/2000/svg"
   xmlns:sodipodi="http://sodipodi.sourceforge.net/DTD/sodipodi-0.dtd"
   xmlns:inkscape="http://www.inkscape.org/namespaces/inkscape"
   width="709.3399mm"
   height="156.77252mm"
   viewBox="0 0 709.3399 156.77252"
   version="1.1"
   id="svg420"
   inkscape:version="0.92.5 (2060ec1f9f, 2020-04-08)"
   sodipodi:docname="fuentes.svg">
  <defs
     id="defs414" />
  <sodipodi:namedview
     id="base"
     pagecolor="#ffffff"
     bordercolor="#666666"
     borderopacity="1.0"
     inkscape:pageopacity="0.0"
     inkscape:pageshadow="2"
     inkscape:zoom="0.35"
     inkscape:cx="1214.7706"
     inkscape:cy="521.9773"
     inkscape:document-units="mm"
     inkscape:current-layer="layer1"
     showgrid="false"
     fit-margin-top="0"
     fit-margin-left="0"
     fit-margin-right="0"
     fit-margin-bottom="0"
     inkscape:window-width="1366"
     inkscape:window-height="702"
     inkscape:window-x="0"
     inkscape:window-y="0"
     inkscape:window-maximized="1" />
  <metadata
     id="metadata417">
    <rdf:RDF>
      <cc:Work
         rdf:about="">
        <dc:format>image/svg+xml</dc:format>
        <dc:type
           rdf:resource="http://purl.org/dc/dcmitype/StillImage" />
        <dc:title></dc:title>
      </cc:Work>
    </rdf:RDF>
  </metadata>
  <g
     inkscape:label="Capa 1"
     inkscape:groupmode="layer"
     id="layer1"
     transform="translate(405.31876,-130.1673)">
    <g
       id="g397"
       style="fill:#434345;fill-opacity:1"
       transform="translate(-206.12226,-1105.8954)">
      <path
         sodipodi:nodetypes="cccsscscccccccccccccccccscc"
         inkscape:connector-curvature="0"
         id="path342"
         d="m 406.81503,1332.2955 v -59.7913 l 2.60322,1.7488 c 6.29691,4.2302 12.62916,6.2209 22.68015,7.1303 8.09477,0.7324 12.72357,-0.1175 21.95319,-4.0306 7.91862,-3.3573 10.63166,-4.1973 15.67162,-4.852 5.42604,-0.7048 9.9871,-0.2586 16.11404,1.5765 11.69885,3.5039 20.83333,12.0732 23.51426,22.0593 0.55633,2.0723 0.62643,5.1782 0.74433,32.9794 0.14326,33.79 0.0726,35.3691 -1.80884,40.393 -1.40049,3.7398 -3.02492,6.2033 -6.25319,9.4832 -5.90797,6.0024 -16.44424,11.0103 -27.21656,12.9358 l -1.31858,0.2357 -0.0925,-41.4016 -0.0925,-41.4017 -1.00531,-1.9402 c -1.81338,-3.4998 -5.2905,-6.5288 -8.93367,-7.7822 -2.40563,-0.8277 -6.82812,-0.9082 -9.58452,-0.1745 -3.90324,1.0389 -7.83064,4.2453 -9.62504,7.8579 l -0.83757,1.6863 -0.18609,28.2222 c -0.20447,31.0036 -0.0732,29.1326 -2.38922,34.043 -2.08862,4.4282 -6.57243,9.4257 -11.00663,12.2677 -5.3479,3.4276 -12.63982,6.4082 -19.20988,7.8521 -1.73715,0.3818 -3.28496,0.6941 -3.43959,0.6941 -0.15458,0 -0.28109,-26.906 -0.28109,-59.7912 z"
         style="fill:#434345;fill-opacity:1;stroke-width:0.35277778" />
      <path
         sodipodi:nodetypes="sccsssscccssccssscscccccssccscc"
         inkscape:connector-curvature="0"
         id="path340"
         d="m 303.98031,1392.1636 c -12.3614,-1.8863 -24.13427,-7.9107 -33.00243,-16.8877 -5.08702,-5.1495 -8.21482,-9.4579 -11.23424,-15.4749 -10.17612,-20.2782 -7.97218,-44.5416 5.71055,-62.868 2.18186,-2.9224 7.51424,-8.3911 10.48029,-10.7483 10.16914,-8.0816 21.8621,-12.4459 35.17117,-13.1273 5.24104,-0.2683 10.40059,0.2671 16.0855,1.6692 4.83739,1.1931 8.425,2.6956 13.83083,5.7922 7.49843,4.2955 10.64394,5.3605 14.77959,5.0043 3.71976,-0.3204 6.32185,-1.1009 10.4244,-3.1269 3.24584,-1.6029 4.15361,-2.274 7.62395,-5.6358 2.16666,-2.099 4.04534,-3.8163 4.17481,-3.8163 0.12947,0 0.18542,20.7566 0.12439,46.1257 -0.12301,51.1029 0.0569,47.1609 -2.39991,52.5794 -3.52785,7.7805 -12.00129,14.307 -23.96751,18.4606 -3.70586,1.2863 -8.10846,2.426 -9.37168,2.426 -0.40213,0 -0.5061,-0.6523 -0.5061,-3.175 0,-3.7506 0.0321,-3.733 -3.5209,-1.9438 -9.30811,4.6875 -22.69066,6.5339 -34.40271,4.7466 z m 16.39842,-27.1572 c 5.129,-1.4396 9.30278,-4.1564 13.04163,-8.489 5.34744,-6.1967 7.93161,-13.8997 7.9176,-23.6011 -0.0148,-10.3596 -3.14067,-18.8395 -9.36646,-25.4108 -3.20358,-3.3813 -8.4407,-6.4183 -12.82174,-7.4353 -2.97667,-0.691 -9.64608,-0.5967 -12.48978,0.1765 -5.68343,1.5454 -11.16348,5.3236 -14.70604,10.1389 -2.46514,3.3509 -5.03872,9.3569 -5.79963,13.5349 -0.88597,4.8647 -1.04613,9.0383 -0.53238,13.8721 0.90442,8.5095 3.76203,15.0392 8.83811,20.1954 3.92702,3.989 9.12947,6.7217 14.69337,7.718 2.7535,0.4931 8.18116,0.1548 11.22532,-0.6996 z"
         style="fill:#434345;fill-opacity:1;stroke-width:0.35277778" />
      <path
         sodipodi:nodetypes="cccccsccccscc"
         inkscape:connector-curvature="0"
         id="path338"
         d="m 188.52627,1345.5086 0.0957,-46.8313 1.16294,-3.0399 c 4.28314,-11.1963 15.56257,-19.0485 32.64132,-22.7233 1.57787,-0.3395 2.09152,-0.3449 2.21495,-0.023 0.0884,0.2303 0.11575,21.2077 0.0608,46.6165 l -0.0999,46.1977 -0.82567,2.2815 c -1.89177,5.227 -4.67586,9.2266 -9.02445,12.9644 -5.29868,4.5545 -14.50145,8.8457 -22.93842,10.6961 -1.73715,0.381 -3.20897,0.6928 -3.27071,0.6928 -0.0617,0 -0.0691,-21.0741 -0.0166,-46.8313 z"
         style="fill:#434345;fill-opacity:1;stroke-width:0.35277778" />
      <path
         sodipodi:nodetypes="ccscscccccscccssscc"
         inkscape:connector-curvature="0"
         id="path336"
         d="m 94.690603,1327.5171 c 0.09157,-60.2716 0.141351,-64.9655 0.709002,-66.8538 3.3733,-11.2214 14.041405,-19.4018 30.957105,-23.7382 1.84326,-0.4726 3.6292,-0.8606 3.96875,-0.8624 0.58001,0 0.61736,1.0959 0.61736,18.1648 v 18.1681 h 14.50499 14.50498 l -0.2517,2.3503 c -0.32414,3.0267 -1.03893,5.7433 -2.2109,8.4025 -4.12884,9.3681 -13.83519,15.7055 -24.05442,15.7055 h -2.47568 l -0.0968,33.4257 -0.0968,33.4257 -0.96803,2.7726 c -3.27494,9.38 -11.90478,16.7074 -24.97212,21.2032 -3.2135,1.1056 -8.998226,2.659 -9.901944,2.659 -0.206926,0 -0.295078,-24.4474 -0.233733,-64.823 z"
         style="fill:#434345;fill-opacity:1;stroke-width:0.35277778" />
      <path
         sodipodi:nodetypes="cccccccccccscccscccccccccsccscc"
         inkscape:connector-curvature="0"
         id="path334"
         d="m -38.283444,1389.5178 c 0.300834,-3.8862 2.171234,-9.2615 4.261104,-12.2459 3.928064,-5.6093 9.563396,-9.5809 15.916553,-11.2173 0.829948,-0.2137 9.4020774,-0.4513 20.8138878,-0.5768 l 19.4027772,-0.2134 1.684094,-0.8293 c 4.794476,-2.3609 6.972286,-7.9562 4.894996,-12.5763 -1.002534,-2.2297 -2.94895,-4.2712 -4.99159,-5.2352 -1.537074,-0.7255 -2.17581,-0.7556 -20.1083328,-0.9469 -21.0692602,-0.2249 -21.7204532,-0.3017 -28.0809512,-3.3147 -4.494096,-2.1289 -7.26337,-4.0761 -10.562717,-7.4271 -6.079934,-6.1751 -9.520674,-13.2963 -10.445771,-21.6192 -2.205323,-19.841 11.106792,-37.2766 30.913394,-40.4892 2.643353,-0.4287 9.238671,-0.5165 38.901739,-0.5177 h 35.718749 v 1.7187 c 0,0.9452 -0.392381,3.2654 -0.871954,5.156 -2.233725,8.8056 -8.609633,15.6177 -17.535076,18.7347 l -2.936025,1.0253 -20.108333,0.1783 c -17.1553391,0.1522 -20.3206305,0.26 -21.5539698,0.734 -4.8036337,1.8465 -7.4186902,7.0996 -5.9840246,12.0206 0.6842513,2.3471 2.7477331,4.8844 4.914988,6.0437 1.4335972,0.7668 1.7511077,0.7825 20.3299514,1.0022 19.972894,0.2363 19.57005,0.2033 25.047221,2.0519 8.887777,2.9998 16.925946,10.2171 21.031323,18.8836 4.704655,9.9316 4.705202,21.4804 0.0014,31.41 -5.131294,10.8323 -15.447475,18.5644 -27.248519,20.4232 -3.090432,0.4868 -8.272755,0.5623 -38.5931823,0.5623 H -38.495083 Z"
         style="fill:#434345;fill-opacity:1;stroke-width:0.35277778" />
      <path
         sodipodi:nodetypes="ccscccscsssccccsccccccccccccccsccccc"
         inkscape:connector-curvature="0"
         id="path332"
         d="m -148.28078,1391.7936 c -2.32834,-0.3559 -4.63021,-0.7526 -5.11528,-0.8816 -12.20587,-3.2451 -22.69748,-9.5797 -30.42606,-18.3705 -8.54252,-9.7166 -13.20457,-20.0013 -14.9254,-32.9262 -1.79639,-13.4923 1.87297,-28.7777 9.65916,-40.2369 8.77383,-12.9128 21.65312,-21.7733 36.57424,-25.1619 15.08779,-3.4264 28.72846,-1.3729 41.62778,6.2668 5.36509,3.1775 9.55076,4.772 12.547014,4.7798 6.756312,0.018 14.155229,-3.3919 20.195197,-9.3062 1.90391,-1.8643 3.535603,-3.3896 3.625981,-3.3896 0.09038,0 0.111859,20.8359 0.04773,46.3021 l -0.116597,46.3021 -0.765263,2.4254 c -1.020134,3.2332 -1.883293,4.9554 -3.98019,7.9412 -1.822574,2.5953 -5.80729,6.2641 -9.152481,8.4269 -4.755416,3.0746 -13.091221,6.4522 -19.184961,7.7737 l -3.01667,0.6542 -0.0999,-3.4091 -0.0999,-3.4091 -2.90662,1.3524 c -10.59034,4.9272 -22.81051,6.6516 -34.48782,4.8665 z m 17.09596,-27.4812 c 4.05699,-1.2719 7.99335,-3.8106 11.20755,-7.228 3.82599,-4.0679 6.51366,-9.2966 7.92645,-15.4204 1.07357,-4.6534 1.06531,-13.4669 -0.0171,-18.2457 -1.45291,-6.4146 -4.41344,-11.9996 -8.67721,-16.3696 -3.49752,-3.5846 -7.43826,-5.9697 -11.86525,-7.1815 -3.20178,-0.8763 -9.9006,-0.8798 -13.20027,-0.01 -9.82905,2.6005 -17.05753,10.4596 -20.16055,21.9194 -0.8846,3.2669 -0.95661,4.0495 -0.9739,10.5833 -0.0175,6.6134 0.0424,7.2857 0.95503,10.7279 2.12372,8.0098 6.16726,14.0521 12.05138,18.0085 3.50592,2.3573 6.57699,3.499 11.83151,4.3985 2.28392,0.3909 7.80541,-0.2084 10.92236,-1.1856 z"
         style="fill:#434345;fill-opacity:1;stroke-width:0.35277778" />
    </g>
  </g>
</svg>
